# Blender v2.78 (sub 0) OBJ File: 'Tree 3.blend'
# www.blender.org
mtllib Tree 3.mtl
o Cylinder
v -0.000000 -0.949231 -0.346404
v -0.000000 0.479000 -0.346404
v 0.244945 -0.949231 -0.244945
v 0.244945 0.476856 -0.244945
v 0.346404 -0.949231 0.000000
v 0.346404 0.464419 0.000000
v 0.244945 -0.949231 0.244945
v 0.244945 0.458067 0.244945
v -0.000000 -0.949231 0.346404
v -0.000000 0.488510 0.346404
v -0.244945 -0.949231 0.244945
v -0.244945 0.489040 0.244945
v -0.346404 -0.949231 -0.000000
v -0.346404 0.468002 -0.000000
v -0.244945 -0.949231 -0.244945
v -0.244945 0.475983 -0.244945
v 1.319124 0.437871 -1.319124
v -0.000000 0.435733 -1.865523
v 1.865523 0.431515 0.000000
v 1.319124 0.412994 1.319124
v -0.000000 0.447615 1.865523
v -1.319124 0.454902 1.319124
v -1.865523 0.427779 -0.000000
v -1.319124 0.436877 -1.319124
v -0.000000 7.161217 0.000000
vn 0.0353 -0.9992 0.0161
vn -0.8967 0.2484 0.3663
vn -0.0279 -0.9996 -0.0005
vn -0.0112 -0.9996 0.0271
vn 0.0060 -0.9996 -0.0265
vn 0.0122 -0.9996 0.0267
vn -0.0472 -0.9988 -0.0136
vn 0.0300 -0.9996 0.0015
vn -0.0200 -0.9995 -0.0242
vn 0.8954 0.2482 -0.3697
vn -0.8956 0.2481 -0.3693
vn 0.8938 0.2478 0.3737
vn -0.3705 0.2483 -0.8950
vn 0.3763 0.2481 0.8927
vn -0.3695 0.2488 0.8953
vn 0.3704 0.2483 -0.8951
vn 0.3827 0.0000 -0.9239
vn 0.9239 0.0000 -0.3827
vn 0.9239 0.0000 0.3827
vn 0.3827 0.0000 0.9239
vn -0.3827 0.0000 0.9239
vn -0.9239 0.0000 0.3827
vn -0.9239 0.0000 -0.3827
vn -0.3827 0.0000 -0.9239
vn 0.0000 -1.0000 0.0000
usemtl Material
s off
f 14//1 12//1 22//1 23//1
f 23//2 22//2 25//2
f 6//3 4//3 17//3 19//3
f 4//4 2//4 18//4 17//4
f 12//5 10//5 21//5 22//5
f 2//6 16//6 24//6 18//6
f 10//7 8//7 20//7 21//7
f 16//8 14//8 23//8 24//8
f 8//9 6//9 19//9 20//9
f 19//10 17//10 25//10
f 24//11 23//11 25//11
f 20//12 19//12 25//12
f 18//13 24//13 25//13
f 21//14 20//14 25//14
f 22//15 21//15 25//15
f 17//16 18//16 25//16
usemtl Material.001
f 1//17 2//17 4//17 3//17
f 3//18 4//18 6//18 5//18
f 5//19 6//19 8//19 7//19
f 7//20 8//20 10//20 9//20
f 9//21 10//21 12//21 11//21
f 11//22 12//22 14//22 13//22
f 13//23 14//23 16//23 15//23
f 15//24 16//24 2//24 1//24
f 1//25 3//25 5//25 7//25 9//25 11//25 13//25 15//25
